<svg width="150" height="150" viewBox="0 0 150 150" fill="none" xmlns="http://www.w3.org/2000/svg">
<rect width="150" height="150" fill="black"/>
<g clip-path="url(#clip0_711_25)">
<path d="M52.9889 73.7486V73.7651L51.6123 79.6754C51.5381 80.0098 51.2 80.2542 50.8108 80.2542H49.1474C49.0874 80.2545 49.0292 80.2739 48.9812 80.3095C48.9332 80.3451 48.8981 80.395 48.8811 80.4518C47.347 85.5996 45.2701 89.1374 42.5273 91.2616C40.1942 93.0704 37.3183 93.914 33.4755 93.914C30.0233 93.914 27.6954 92.8158 25.7209 90.6472C23.1112 87.782 22.0331 83.0903 22.6861 77.4384C23.8642 66.8276 29.4279 56.1204 40.1404 56.1204C43.3993 56.0926 45.9577 57.0869 47.7376 59.0718C49.6199 61.1719 50.5751 64.3335 50.5803 68.473C50.5756 68.6544 50.4995 68.8269 50.3682 68.9537C50.2369 69.0805 50.0608 69.1516 49.8773 69.1519H42.0279C41.8903 69.1477 41.7597 69.0916 41.6627 68.995C41.5658 68.8984 41.5099 68.7687 41.5067 68.6326C41.4427 65.7699 40.5848 64.3766 38.8792 64.3766C35.87 64.3766 34.0953 68.4172 33.1541 70.6567C31.839 73.7854 31.1694 77.1838 31.3012 80.5684C31.364 82.1441 31.6201 84.3595 33.1323 85.2778C34.473 86.091 36.3861 85.5514 37.5449 84.6508C38.7025 83.749 39.6347 82.1897 40.0265 80.7672C40.0815 80.5696 40.0854 80.4164 40.0329 80.348C39.9778 80.277 39.8254 80.2606 39.7089 80.2606H37.6934C37.5868 80.2609 37.4813 80.2382 37.3844 80.194C37.2875 80.1498 37.2016 80.0852 37.1326 80.0047C37.0796 79.9419 37.042 79.8678 37.0227 79.7883C37.0034 79.7088 37.0029 79.6259 37.0212 79.5462L38.399 73.6258C38.4669 73.323 38.7447 73.0938 39.0866 73.0532V73.038H52.314C52.3448 73.038 52.3768 73.038 52.4062 73.0444C52.7494 73.0887 52.9914 73.4041 52.985 73.7486H52.9889Z" fill="#FFFDE6"/>
<path d="M75.7596 66.9567C75.7536 67.1368 75.6771 67.3075 75.5461 67.4328C75.4152 67.5581 75.2401 67.6281 75.0579 67.628H67.8283C67.3545 67.628 66.9588 67.248 66.9588 66.7857C66.9588 64.6995 66.2289 63.6836 64.7359 63.6836C63.2428 63.6836 62.2799 64.5905 62.2517 66.1751C62.2197 67.9421 63.23 69.5483 66.106 72.3071C69.8924 75.8208 71.4098 78.933 71.3368 83.0471C71.2177 89.6997 66.6451 94 59.6869 94C56.1336 94 53.4189 93.0601 51.6134 91.2057C49.7811 89.3222 48.9411 86.5583 49.1165 82.9914C49.1225 82.8111 49.1992 82.6401 49.3305 82.5148C49.4617 82.3895 49.6371 82.3196 49.8195 82.3201H57.2975C57.4017 82.3217 57.5042 82.3462 57.5976 82.3918C57.6911 82.4373 57.7731 82.5028 57.8379 82.5835C57.8944 82.6503 57.9358 82.7282 57.9592 82.8121C57.9826 82.8961 57.9875 82.984 57.9736 83.0699C57.8904 84.3569 58.117 85.3183 58.6292 85.8503C58.957 86.1948 59.4142 86.3696 59.984 86.3696C61.3656 86.3696 62.1749 85.4044 62.2056 83.7223C62.2313 82.2681 61.7664 80.9939 59.2336 78.4162C55.962 75.2546 53.0284 71.9879 53.1193 66.8515C53.1731 63.8723 54.3691 61.1477 56.4883 59.1793C58.7291 57.0995 61.7933 56 65.3505 56C68.9141 56.0253 71.6147 57.0311 73.3779 58.9893C75.0477 60.845 75.8505 63.5253 75.7622 66.9567H75.7596Z" fill="#FFFDE6"/>
<path d="M98.1691 92.7486L98.2165 57.3668C98.2179 57.2782 98.2013 57.1902 98.1678 57.108C98.1343 57.0258 98.0846 56.9511 98.0215 56.8882C97.9583 56.8253 97.8832 56.7755 97.8003 56.7418C97.7175 56.708 97.6287 56.691 97.5391 56.6917H86.3502C85.9737 56.6917 85.8086 57.0121 85.701 57.2237L69.5003 92.532V92.5383L69.4939 92.5472C69.3146 92.9817 69.6552 93.4465 70.1303 93.4465H77.9515C78.3741 93.4465 78.6545 93.3199 78.7915 93.0564L80.3447 89.3641C80.5355 88.8713 80.5714 88.8257 81.1143 88.8257H88.5872C89.1071 88.8257 89.1173 88.8359 89.1097 89.3387L88.9419 92.7714C88.9406 92.8599 88.9571 92.9478 88.9905 93.0299C89.0239 93.112 89.0735 93.1867 89.1365 93.2496C89.1995 93.3124 89.2745 93.3622 89.3572 93.3961C89.4399 93.4299 89.5285 93.4471 89.618 93.4465H97.5199C97.6177 93.4477 97.7146 93.4277 97.8038 93.3879C97.8929 93.348 97.9722 93.2894 98.0359 93.216C98.091 93.1522 98.1314 93.0774 98.1543 92.9967C98.1773 92.9161 98.1824 92.8314 98.1691 92.7486ZM84.327 80.9357C84.2681 80.936 84.2091 80.9339 84.1503 80.9293C84.1229 80.9271 84.0964 80.9189 84.0725 80.9054C84.0486 80.8919 84.028 80.8734 84.0121 80.8512C83.9963 80.829 83.9855 80.8036 83.9806 80.7768C83.9757 80.7501 83.9769 80.7226 83.9839 80.6963C83.9992 80.6456 84.021 80.5759 84.053 80.4911L89.6564 66.7756C89.7068 66.6403 89.7649 66.5079 89.8306 66.3791C89.9215 66.1942 90.0316 66.1815 90.0662 66.3183C90.0956 66.4323 89.4234 80.4011 89.4234 80.4011C89.3709 80.9243 89.3466 80.9458 88.8254 80.9889L84.3322 80.9382H84.3219L84.327 80.9357Z" fill="#FFFDE6"/>
<path d="M114.108 56.6915H108.168C107.855 56.6915 107.502 56.8562 107.42 57.2261L99.1536 92.7307C99.1356 92.8108 99.1363 92.8939 99.1559 92.9736C99.1754 93.0533 99.2132 93.1275 99.2663 93.1905C99.3352 93.2708 99.421 93.3352 99.5176 93.3794C99.6142 93.4236 99.7194 93.4465 99.8259 93.4464H107.25C107.65 93.4464 107.922 93.2526 107.997 92.9169L108.898 88.8927C108.962 88.5786 108.852 88.3354 108.568 88.1885C108.434 88.1205 108.301 88.0521 108.168 87.9833L106.881 87.3208L105.601 86.6596L105.105 86.405C105.065 86.3851 105.031 86.3543 105.008 86.3162C104.985 86.2781 104.973 86.2342 104.973 86.1897C104.975 86.1237 105.003 86.061 105.051 86.0151C105.099 85.9691 105.163 85.9436 105.23 85.9439L109.298 85.9617C110.514 85.968 111.732 85.8831 112.929 85.6653C121.355 84.1263 126.95 77.4509 127.112 68.3677C127.25 60.6157 122.876 56.6877 114.115 56.6877L114.108 56.6915ZM112.087 77.8195H111.928C111.57 77.8195 111.508 77.7815 111.498 77.7689C111.491 77.76 113.843 67.5431 113.845 67.5291C113.905 67.234 113.902 67.0643 113.718 66.9642C113.482 66.835 110.048 65.0439 110.048 65.0439C110.008 65.0232 109.975 64.9918 109.952 64.9533C109.929 64.9148 109.918 64.8707 109.919 64.8261C109.92 64.761 109.948 64.6991 109.995 64.6537C110.042 64.6083 110.105 64.5829 110.171 64.5829H115.601C117.292 64.6335 118.234 66.1295 118.189 68.6843C118.111 73.1063 115.986 77.6637 112.087 77.8195Z" fill="#FFFDE6"/>
</g>
<defs>
<clipPath id="clip0_711_25">
<rect width="105" height="38" fill="white" transform="translate(22.5 56)"/>
</clipPath>
</defs>
</svg>
