<?xml version="1.0" standalone="no"?>
<!DOCTYPE svg PUBLIC "-//W3C//DTD SVG 20010904//EN"
 "http://www.w3.org/TR/2001/REC-SVG-20010904/DTD/svg10.dtd">
<svg version="1.0" xmlns="http://www.w3.org/2000/svg"
 width="49.000000pt" height="49.000000pt" viewBox="0 0 49.000000 49.000000"
 preserveAspectRatio="xMidYMid meet">

<g transform="translate(0.000000,49.000000) scale(0.100000,-0.100000)"
fill="#000000" stroke="none">
<path d="M64 474 c-56 -27 -64 -55 -64 -224 0 -240 9 -250 240 -250 240 0 250
9 250 240 0 241 -9 250 -242 250 -116 0 -160 -4 -184 -16z m214 -73 c10 -6 8
-10 -10 -14 -35 -9 -78 -52 -78 -78 0 -13 21 -45 50 -75 57 -61 57 -79 -2
-107 -67 -31 -83 -31 -111 3 -77 91 -42 226 68 265 47 17 65 18 83 6z"/>
</g>
</svg>
