<svg width="256" height="256" viewBox="0 0 256 256" fill="none" xmlns="http://www.w3.org/2000/svg">
<g id="Arch-Dark 8" clip-path="url(#clip0_9_239)">
<g id="Clip path group">
<mask id="mask0_9_239" style="mask-type:luminance" maskUnits="userSpaceOnUse" x="0" y="0" width="256" height="256">
<g id="clip0_33_628">
<path id="Vector" d="M256 0H0V256H256V0Z" fill="white"/>
</g>
</mask>
<g mask="url(#mask0_9_239)">
<g id="Group">
<path id="Vector_2" d="M196 0H60C26.8629 0 0 26.8629 0 60V196C0 229.137 26.8629 256 60 256H196C229.137 256 256 229.137 256 196V60C256 26.8629 229.137 0 196 0Z" fill="#242938"/>
</g>
</g>
</g>
<g id="Frame">
<g id="swiper-logo 2" clip-path="url(#clip1_9_239)">
<path id="Vector_3" d="M161.922 71.3459C180.173 82.6198 192.335 102.807 192.335 125.835C192.335 161.181 163.681 189.835 128.335 189.835C120.627 189.835 113.237 188.472 106.396 185.973L105.665 185.701L106.855 185.318L108.385 184.817L109.14 184.564L109.888 184.311L111.364 183.803L112.813 183.291L114.235 182.776L115.629 182.258L116.317 181.997L117.671 181.473C119.101 180.913 120.486 180.346 121.824 179.774L122.819 179.343L124.038 178.802C124.574 178.56 125.102 178.318 125.622 178.074L126.396 177.708L127.535 177.155L128.094 176.878L128.646 176.599L129.731 176.039C138.837 171.263 145.023 166.074 148.308 160.385C155.267 148.331 149.189 135.45 131.742 122.318L130.322 121.254L129.459 120.592L128.622 119.936L127.809 119.284L127.022 118.638L126.638 118.316L126.259 117.996L125.521 117.36L124.984 116.886L124.461 116.414L123.785 115.79L123.133 115.171L122.505 114.556L122.201 114.251L121.902 113.946L121.323 113.341C114.426 106.009 112.886 99.7326 116.017 94.3092C117.611 91.5488 120.374 88.835 124.301 86.1919L124.778 85.8751L125.529 85.3919C125.869 85.1775 126.216 84.9636 126.571 84.7501L127.109 84.4304L127.939 83.9522L128.794 83.4758L129.453 83.1196L130.126 82.7645L131.047 82.2925C131.747 81.9393 132.47 81.5876 133.214 81.2376L133.966 80.8881L134.991 80.4238L135.513 80.1924L136.577 79.7311L137.119 79.5012L138.223 79.043L138.784 78.8147L139.926 78.3597L140.507 78.133L141.689 77.6812L142.896 77.2316L143.509 77.0076L144.756 76.5613L146.028 76.1174L147.327 75.6757L147.986 75.4558L149.323 75.0176L150.687 74.5819L152.076 74.1486L153.491 73.7178L154.933 73.2894L156.771 72.7575L158.65 72.2297L160.958 71.6017L161.922 71.3459ZM128.335 61.835C136.118 61.835 143.577 63.2242 150.476 65.7684L151.213 66.0453L150.746 66.1868L148.466 66.8895L147.72 67.1255L146.247 67.6004L144.801 68.0789L143.382 68.5612L141.99 69.0472L140.625 69.537L139.952 69.7834L138.3 70.4035L136.69 71.0297L135.431 71.535L134.812 71.7892L133.594 72.3005C121.147 77.6049 112.99 83.5526 109.089 90.3092C102.28 102.102 108.456 114.815 125.905 127.943L127.325 129.008L128.187 129.67L129.024 130.327L129.433 130.654L130.233 131.304L130.815 131.788L131.384 132.27L132.121 132.908L132.48 133.226L133.18 133.857C133.561 134.207 133.932 134.555 134.29 134.9L134.82 135.416L135.583 136.185L136.308 136.947C143.175 144.33 144.643 150.732 141.38 156.385C139.268 160.042 135.236 163.643 129.294 167.138L128.748 167.456L127.864 167.957L126.954 168.456C126.441 168.733 125.916 169.009 125.378 169.285L124.563 169.697L123.56 170.191L122.532 170.683L121.476 171.174L120.939 171.418L119.845 171.906L118.724 172.393L117.577 172.877L116.993 173.118L115.807 173.6L115.204 173.84L114.594 174.08L113.356 174.558L112.09 175.034L110.799 175.508L109.482 175.98L108.138 176.45L107.456 176.684L106.073 177.151L105.372 177.383L103.949 177.847L102.501 178.308L100.653 178.882L98.7645 179.453L97.2243 179.906L95.0747 180.524C76.6422 169.29 64.335 149 64.335 125.835C64.335 90.4887 92.9888 61.835 128.335 61.835Z" fill="#0080FF"/>
</g>
</g>
</g>
<defs>
<clipPath id="clip0_9_239">
<rect width="256" height="256" fill="white"/>
</clipPath>
<clipPath id="clip1_9_239">
<rect width="129" height="129" fill="white" transform="translate(64 61)"/>
</clipPath>
</defs>
</svg>
